<svg id="Layer_1" data-name="Layer 1" xmlns="http://www.w3.org/2000/svg" viewBox="0 0 96 96"><defs><style>.cls-1{fill:#17d1fc;}.cls-2{fill:#173647;}</style></defs><rect class="cls-1" x="2.524" y="2.524" width="90.952" height="90.964"/><path class="cls-2" d="M90.952,5.048V90.964H5.048V5.048h85.9M96,0H0V96.012H96V0Z"/><path class="cls-2" d="M22.3,52.151S26.98,33.818,48.134,31.789c20.915-2.006,27.415-4.3,32.073-11-4.225,12.3-9.14,20.138-36.236,22.065C26.246,44.111,22.3,52.151,22.3,52.151Z"/><path class="cls-2" d="M54.94,63.2c-4.717,2.428-12.351.754-20.071,1-11.316.368-11.236,3.6-11.236,3.6S33.239,84.888,54.94,63.2Z"/><path class="cls-2" d="M22.109,62.678s-.759-12.019,16.984-13.4c20.607-1.607,27.47-4.183,30.591-7.767-2.257,11.412-10.3,18.173-27.261,17.445C23.162,58.125,22.109,62.678,22.109,62.678Z"/><polygon class="cls-2" points="73.755 55.046 73.755 70.856 64.634 61.543 61.065 65.112 70.251 74.492 56.329 74.492 51.281 79.54 78.803 79.54 78.803 49.999 73.755 55.046"/><polygon class="cls-2" points="22.853 39.628 22.853 26.381 29.715 33.352 33.801 30.299 26.357 22.746 43.773 22.746 48.821 17.698 17.805 17.698 17.805 44.676 22.853 39.628"/></svg>